<?xml version="1.0" encoding="UTF-8"?>
<!-- S.P.E.A.R. のアイコン(計器の文法: 黒地・フラット。スペクトラムのトレースとマーカー) -->
<svg xmlns="http://www.w3.org/2000/svg" viewBox="0 0 128 128" width="128" height="128">
  <rect width="128" height="128" rx="0" fill="#000000"/>
  <rect x="6" y="6" width="116" height="116" fill="none" stroke="#3a3a3a" stroke-width="2"/>
  <g stroke="#1c1c1c" stroke-width="1">
    <line x1="6" y1="35" x2="122" y2="35"/><line x1="6" y1="64" x2="122" y2="64"/><line x1="6" y1="93" x2="122" y2="93"/>
    <line x1="35" y1="6" x2="35" y2="122"/><line x1="64" y1="6" x2="64" y2="122"/><line x1="93" y1="6" x2="93" y2="122"/>
  </g>
  <polyline fill="none" stroke="#3cf03c" stroke-width="3" stroke-linejoin="round"
            points="8,100 18,96 26,101 34,94 42,99 50,90 56,97 62,40 66,22 70,44 76,95 84,92 92,99 100,93 108,98 116,95 120,99"/>
  <line x1="66" y1="12" x2="66" y2="112" stroke="#f0b020" stroke-width="2"/>
  <text x="64" y="120" fill="#d8d8d8" font-family="monospace" font-size="13" font-weight="bold" text-anchor="middle">S.P.E.A.R.</text>
</svg>
